<svg version="1.2" xmlns="http://www.w3.org/2000/svg" viewBox="0 0 330 160" width="330" height="160">
	<title>New Project</title>
	<style>
		.s0 { fill: #c7c7c7 } 
	</style>
	<path id="• ▌ ▄ ·.       ▄▄▌  ▄▄▄ . ·██ ▐█" class="s0" aria-label="• ▌ ▄ ·.       ▄▄▌  ▄▄▄ .
·██ ▐███       ██•  ▀▄.▀·
▐█ ▌▐▌▐█· ▄█▀▄ ██   ▐▀▀ ▄
██ ██▌▐█▌▐█▌.▐▌▐█▌▐▌▐█▄▄▌
▀▀  █ ▀▀▀ ▀█▄▀ .▀▀▀  ▀▀▀"  d="m12.5 24.2c0 2 1.4 3.7 3.2 3.7 1.8 0 3.3-1.7 3.3-3.7 0-2-1.5-3.6-3.3-3.6-1.8 0-3.2 1.6-3.2 3.6zm21.9-17.3v30.8h6.4v-30.8zm24.9 15.4v15.4h12.9v-15.4zm30.7 0v3.6h2.9v-3.6zm11.5 5.1v3.6h2.9v-3.6zm94.5-5.1v15.4h12.9v-15.4zm12.4 0v15.4h12.9v-15.4zm12.4-15.4v30.8h6.5v-30.8zm37.2 15.4v15.4h12.9v-15.4zm12.5 0v15.4h12.8v-15.4zm12.5 0v15.4h12.9v-15.4zm29.7 5.1v3.6h2.9v-3.6zm-297.1 23.9v3.6h2.9v-3.6zm6.6-15.4v30.8h12.9v-30.8zm12.4 0v30.8h12.9v-30.8zm31.3 30.8h6.4v-30.8h-6.4zm5.9-30.8v30.8h12.9v-30.8zm12.5 0v30.8h12.9v-30.8zm12.4 0v30.8h12.9v-30.8zm99.3 0v30.8h12.9v-30.8zm12.5 0v30.8h12.8v-30.8zm15.4 17.3c0 2 1.4 3.7 3.2 3.7 1.8 0 3.3-1.7 3.3-3.7 0-2-1.5-3.6-3.3-3.6-1.8 0-3.2 1.6-3.2 3.6zm34.3-17.3v15.4h12.9v-15.4zm12.4 15.4v15.4h12.9v-15.4zm17.3 5.1v3.6h3v-3.6zm7.5-20.5v15.4h12.9v-15.4zm18.3 15.4v3.6h2.9v-3.6zm-297.5 44.4h6.4v-30.8h-6.4zm6-30.8v30.8h12.9v-30.8zm24.8 0v30.8h6.4v-30.8zm18.9 30.8h6.5v-30.8h-6.5zm6-30.8v30.8h6.4v-30.8zm18.9 30.8h6.4v-30.8h-6.4zm6-30.8v30.8h12.9v-30.8zm18.3 15.5v3.5h2.9v-3.5zm19-0.1v15.4h12.9v-15.4zm12.4-15.4v30.8h12.9v-30.8zm12.4 0v15.4h12.9v-15.4zm12.4 15.4v15.4h12.9v-15.4zm24.8-15.4v30.8h12.9v-30.8zm12.5 0v30.8h12.9v-30.8zm56.1 30.8h6.4v-30.8h-6.4zm6-30.7v15.3h12.9v-15.3zm12.4 0v15.3h12.9v-15.3zm24.8 15.3v15.4h12.9v-15.4zm-298.1 13.7v30.7h12.9v-30.7zm12.4 0v30.7h12.9v-30.7zm24.8 0v30.7h12.9v-30.7zm12.4 0v30.7h12.9v-30.7zm12.4 0v30.7h6.5v-30.7zm18.9 30.7h6.4v-30.7h-6.4zm5.9-30.8v30.8h12.9v-30.8zm12.4 0v30.8h6.5v-30.8zm18.9 30.8h6.4v-30.8h-6.4zm5.9-30.8v30.8h12.9v-30.8zm12.4 0v30.8h6.5v-30.8zm17.3 20.5v3.6h2.9v-3.6zm14 10.3h6.5v-30.8h-6.5zm6-30.8v30.8h6.4v-30.8zm18.9 30.8h6.5v-30.8h-6.5zm6-30.8v30.8h12.9v-30.8zm12.4 0v30.8h6.4v-30.8zm18.9 30.8h6.5v-30.8h-6.5zm6-30.8v30.8h6.4v-30.8zm18.9 30.8h6.5v-30.8h-6.5zm6-30.8v30.8h12.9v-30.8zm12.4 15.4v15.4h12.9v-15.4zm12.4 0v15.4h12.9v-15.4zm12.4-15.4v30.8h6.5v-30.8zm-298.2 28v15.4h12.9v-15.4zm12.5 0v15.4h12.8v-15.4zm37.3 0v30.8h12.9v-30.8zm24.8 0v15.4h12.9v-15.4zm12.5 0v15.4h12.8v-15.4zm12.5 0v15.4h12.9v-15.4zm24.8 0v15.4h12.9v-15.4zm12.4 0v30.8h12.9v-30.8zm12.4 15.4v15.4h12.9v-15.4zm12.4-15.4v15.4h12.9v-15.4zm29.8 20.6v3.5h2.9v-3.5zm7.5-20.6v15.4h12.9v-15.4zm12.4 0v15.4h12.9v-15.4zm12.5 0v15.4h12.9v-15.4zm37.2 0v15.4h12.9v-15.4zm12.4 0v15.4h12.9v-15.4zm12.4 0v15.4h12.9v-15.4z"/>
</svg>